<?xml version="1.0" encoding="UTF-8"?>
<!DOCTYPE svg PUBLIC "-//W3C//DTD SVG 1.1//EN" "http://www.w3.org/Graphics/SVG/1.1/DTD/svg11.dtd">
<!-- Creator: CorelDRAW X8 -->
<svg xmlns="http://www.w3.org/2000/svg" xml:space="preserve" width="2in" height="2in" version="1.1" style="shape-rendering:geometricPrecision; text-rendering:geometricPrecision; image-rendering:optimizeQuality; fill-rule:evenodd; clip-rule:evenodd"
viewBox="0 0 2000 2000"
 xmlns:xlink="http://www.w3.org/1999/xlink">
 <defs>
  <style type="text/css">
   <![CDATA[
    .str4 {stroke:blue;stroke-width:9.99606}
    .str2 {stroke:#6674BE;stroke-width:4.99606}
    .str6 {stroke:white;stroke-width:4.99606}
    .str5 {stroke:#36295C;stroke-width:2.99606}
    .str1 {stroke:#FF8781;stroke-width:2.99606}
    .str0 {stroke:white;stroke-width:3}
    .str3 {stroke:black;stroke-width:0.996063}
    .fil11 {fill:none}
    .fil22 {fill:blue}
    .fil10 {fill:#0E2E82}
    .fil8 {fill:#1066B7}
    .fil15 {fill:#1356A4}
    .fil28 {fill:#2D4763}
    .fil1 {fill:#36295C}
    .fil4 {fill:#6674BE}
    .fil3 {fill:#6D51B8}
    .fil24 {fill:#6DFFE8}
    .fil23 {fill:#744CA2}
    .fil9 {fill:#759DCB}
    .fil2 {fill:#8767BE}
    .fil17 {fill:#9181CA}
    .fil27 {fill:#995FD4}
    .fil16 {fill:#9B4EBB}
    .fil19 {fill:#BF33C8}
    .fil21 {fill:#C0AFEB}
    .fil13 {fill:#CB4D7A}
    .fil20 {fill:#CCBBEC}
    .fil14 {fill:#DFD8F9}
    .fil18 {fill:#E248D9}
    .fil12 {fill:#E4688E}
    .fil25 {fill:#FF1581}
    .fil6 {fill:#FF8781}
    .fil5 {fill:#FF9997}
    .fil0 {fill:#FFC700}
    .fil7 {fill:white}
    .fil26 {fill:white}
   ]]>
  </style>
 </defs>
 <g id="Layer_x0020_1">
  <metadata id="CorelCorpID_0Corel-Layer"/>
  <ellipse class="fil0" cx="1151" cy="1046" rx="803" ry="748"/>
  <polygon class="fil1" points="231,1672 1188,1648 1184,1616 290,1610 "/>
  <path class="fil2" d="M1591 1670c0,0 -127,-85 -152,-488l-266 -20c0,0 -106,121 -37,317 68,196 177,298 177,298 0,0 150,-19 278,-107z"/>
  <path class="fil3" d="M1476 1434c0,0 20,114 35,162 15,49 20,101 -15,108 -35,6 -263,-73 -266,-140 0,0 -64,-16 -96,-87 0,0 -70,-179 40,-315l263 20c0,0 20,207 39,252z"/>
  <path class="fil4" d="M1003 926c0,0 17,146 87,139 71,-6 133,-67 153,-127 0,0 -34,-91 27,-124 0,0 30,-20 37,-65 6,-46 -74,-49 -74,-49 0,0 12,-42 -20,-52 0,0 -89,-22 -141,-65 0,0 -139,30 -57,162 0,0 92,136 -12,181z"/>
  <path class="fil5" d="M1218 712c0,0 -71,-22 -128,-2 0,0 -70,-10 -73,37 -2,21 -1,44 -1,65 0,27 0,49 -6,57 -10,15 -17,37 -7,57 10,20 20,89 44,84 23,-5 13,-37 28,-29 15,9 41,37 54,17 13,-20 7,-48 7,-48l37 -10c0,0 55,-41 53,-108 -1,-47 -19,-51 -19,-75 0,-10 2,-24 11,-45z"/>
  <path class="fil6" d="M1018 778c0,0 37,14 34,81 0,0 -20,24 -37,-2 0,0 -2,-67 3,-79z"/>
  <path class="fil6" d="M1085 742c0,0 -18,79 9,119 0,0 52,24 75,-27 0,0 7,-22 0,-49 0,0 -30,-31 -84,-43z"/>
  <path class="fil7" d="M1104 819c0,0 -10,35 3,43 14,9 39,-6 40,-16 0,0 -26,-25 -43,-27z"/>
  <path class="fil8 str0" d="M1026 812c0,0 -13,55 20,49 0,0 6,-41 -20,-49z"/>
  <path class="fil9" d="M1122 827c0,0 -10,30 5,30 15,0 20,-11 20,-11l-25 -19z"/>
  <path class="fil10" d="M1087 742c0,0 72,23 82,43 0,0 -33,-20 -67,-13 -33,7 -15,-30 -15,-30z"/>
  <path class="fil10" d="M1016 757c0,0 17,12 27,47 0,0 -16,-29 -28,-25l1 -22z"/>
  <path class="fil10" d="M1094 817c0,0 38,-11 57,24 0,0 -5,10 -17,3 -12,-7 3,-20 -40,-27z"/>
  <path class="fil10" d="M1053 858c0,0 6,-47 -35,-47 0,0 31,5 26,51l9 -4z"/>
  <path class="fil9" d="M1040 827c0,0 -13,20 5,31 0,0 5,-19 -5,-31z"/>
  <path class="fil6" d="M1028 903l56 1c0,0 -45,36 -56,-1z"/>
  <path class="fil11 str1" d="M1037 884c0,0 -20,15 -5,27 15,12 20,13 52,-7"/>
  <path class="fil12" d="M1017 742c0,0 37,-2 73,-24 37,-21 103,-1 116,36 0,0 7,-34 12,-42 0,0 -67,-22 -128,0 0,0 -63,-14 -73,30z"/>
  <path class="fil6" d="M1226 831c0,0 -102,67 -74,114 0,0 67,-9 74,-114z"/>
  <path class="fil11 str1" d="M1037 961c0,0 27,14 50,-3 24,-17 27,-18 27,-18"/>
  <path class="fil11 str2" d="M1136 950c0,0 -12,-31 -39,-17 -27,13 -42,33 -80,12 0,0 -4,10 0,23 3,13 11,45 32,42 0,0 10,-2 16,-24 7,-21 29,16 51,21 21,5 25,-46 20,-57z"/>
  <path class="fil13" d="M1208 1067c0,0 60,-61 32,-131 0,0 -12,55 -67,96l35 35z"/>
  <path class="fil5" d="M1305 1045l-62 -105c0,0 20,65 -37,125l12 15c0,0 43,-27 87,-35z"/>
  <path class="fil14" d="M1337 1069c0,0 -12,-31 -32,-24 0,0 -55,14 -87,35 0,0 -49,15 -57,32 0,0 -6,52 9,53 0,0 104,-75 167,-96z"/>
  <path class="fil15" d="M1066 1061c0,0 -11,-23 9,-23 21,0 84,7 94,-10 10,-16 50,-55 49,-87 -2,-32 3,-73 13,-82l9 -8c0,0 -14,40 3,87 0,0 -57,142 -177,123z"/>
  <path class="fil5" d="M1273 811c0,0 52,5 40,57 -11,51 -45,98 -75,50 -1,0 -19,-85 35,-107z"/>
  <path class="fil6" d="M1295 846c0,0 -50,5 -47,38 3,34 15,34 25,14 10,-20 -15,-29 22,-52z"/>
  <path class="fil11 str1" d="M1288 894c0,0 -1,-26 -12,-32"/>
  <path class="fil15" d="M1305 759c0,0 -65,-32 -94,-56 0,0 39,-13 34,-62 0,0 28,37 -12,59 0,0 87,0 72,59z"/>
  <path class="fil10" d="M1052 712c0,0 -12,-19 22,-17 0,0 18,-57 48,-52 30,5 82,50 87,65 0,0 -74,-14 -116,4l-41 0z"/>
  <path class="fil15" d="M1211 648c0,0 20,29 -8,29 -29,0 -29,-7 -29,-7 0,0 -73,-71 -135,37 0,0 -12,1 -7,-20 5,-22 22,-64 50,-61 0,0 -48,-6 -70,45 0,0 -14,-36 42,-62 0,0 -37,7 -49,41 0,0 -3,-49 67,-67 0,0 50,43 139,65z"/>
  <path class="fil16" d="M1173 1162c0,0 236,118 264,17 0,0 -23,-69 -102,-110 0,0 -100,36 -162,93z"/>
  <path class="fil2" d="M1166 1182c0,0 234,242 -30,294 0,0 94,11 95,87 0,0 161,-213 -65,-381z"/>
  <polygon class="fil2" points="1256,1394 1122,1442 1131,1466 "/>
  <path class="fil17" d="M1332 1489c0,0 72,136 164,168 0,0 -89,-86 -164,-168z"/>
  <path class="fil17" d="M1347 1769c0,0 -34,-109 -84,-156 0,0 -28,-18 -33,-49 0,0 -62,-18 -91,-77 0,0 62,180 174,290l34 -8z"/>
  <path class="fil18" d="M826 489c0,0 -44,127 -35,218l-104 0 45 30 -134 -39c0,0 -5,-124 5,-174 0,0 129,-33 223,-35z"/>
  <path class="fil19" d="M858 519l-32 -30c0,0 -47,149 -35,218l28 1c0,0 12,-147 39,-189z"/>
  <polygon class="fil19" points="732,737 717,718 819,708 687,707 "/>
  <path class="fil20" d="M1136 1479c0,0 -163,152 -193,154 -30,2 -216,19 -377,-32l-40 4c0,0 47,40 50,57l352 5c0,0 44,1 64,-36 0,0 102,-103 150,-139l-6 -13z"/>
  <path class="fil21" d="M1039 1362c0,0 -145,-141 -163,-201 0,0 -10,52 -33,60l122 255c0,0 52,-71 74,-114z"/>
  <path class="fil11 str3" d="M358 1623c0,0 -20,-8 -38,-5"/>
  <path class="fil5" d="M878 1162c0,0 -14,-18 -15,-30 0,0 3,57 -27,66l7 23c0,0 20,-2 35,-59z"/>
  <path class="fil6" d="M814 1145c0,0 30,10 49,-13 0,0 2,60 -28,66l-21 -53z"/>
  <path class="fil22" d="M832 933l-67 -2c0,0 -15,12 -6,22l57 0c0,0 8,0 16,-20z"/>
  <path class="fil5" d="M863 1132c0,0 50,-53 25,-100 -25,-47 -47,-64 -54,-99 0,0 -8,17 -17,20 0,0 0,25 31,54 0,0 11,13 0,13 -12,0 -61,-52 -64,-67 0,0 -37,-75 -52,-72 -15,3 33,95 33,95 0,0 -25,-1 -30,10 0,0 -23,4 -20,24 4,20 91,127 101,134 0,0 23,13 47,-12z"/>
  <path class="fil6" d="M821 1067c0,0 -66,-20 -76,-44 0,0 25,5 20,-8l-10 -12c0,0 32,22 39,14 7,-9 0,-20 -29,-41 0,0 -43,-80 -33,-95 10,-15 55,80 55,80 0,0 40,56 62,59 0,0 12,-2 4,17 -9,18 -9,43 -9,43 0,0 -7,5 -7,-32 0,0 -25,9 -16,19z"/>
  <line class="fil11 str4" x1="806" y1="894" x2="781" y2= "856" />
  <line class="fil11 str4" x1="829" y1="894" x2="846" y2= "852" />
  <line class="fil11 str4" x1="851" y1="913" x2="889" y2= "899" />
  <polygon class="fil23" points="75,1114 292,1616 917,1585 722,1134 "/>
  <polygon class="fil24" points="110,1139 710,1161 874,1559 311,1586 "/>
  <polygon class="fil7" points="342,1208 392,1347 665,1350 608,1219 "/>
  <polygon class="fil25" points="412,1394 430,1442 695,1439 673,1390 "/>
  <polygon class="fil26" points="511,1409 517,1424 590,1424 579,1407 "/>
  <polygon class="fil27" points="72,1137 281,1630 291,1609 76,1114 "/>
  <path class="fil5" d="M497 1657c0,0 -57,30 -112,3 -55,-27 -57,-37 -95,-3 0,0 -25,1 -12,-12 13,-14 42,-27 42,-27 0,0 -2,-12 -57,25 0,0 -19,7 -17,-8 0,0 -22,8 -15,-7 7,-15 44,-53 67,-52 23,2 166,24 228,29 0,0 -2,32 -29,52z"/>
  <path class="fil14" d="M1171 1162c0,0 -50,56 -119,176 -69,121 -107,185 -209,216 -103,32 -317,51 -317,51 0,0 45,38 50,57l349 5c0,0 43,0 62,-29 18,-28 154,-146 154,-146 0,0 -81,-162 30,-330z"/>
  <path class="fil6" d="M497 1657c0,0 26,-23 27,-53 0,0 50,41 52,58l-79 -5z"/>
  <path class="fil11 str5" d="M243 1536c0,0 -231,39 -208,102 23,64 352,84 491,71 139,-14 285,28 285,51 0,24 -138,14 -96,-5 42,-18 394,-13 399,-48 5,-35 -344,-44 -344,-44"/>
  <path class="fil8" d="M117 955c0,0 -42,124 35,164 0,0 71,-79 -35,-164z"/>
  <path class="fil8" d="M303 1013c0,0 -117,-6 -132,104 0,0 92,2 132,-104z"/>
  <path class="fil28" d="M117 956c0,0 39,84 35,164 0,0 -78,-38 -35,-164z"/>
  <path class="fil28" d="M303 1015c0,0 -100,30 -132,104 0,0 95,-4 132,-104z"/>
  <path class="fil8" d="M378 770c0,0 2,208 155,213 0,0 46,-142 -155,-213z"/>
  <path class="fil28" d="M528 978c0,0 -104,-189 -150,-208 0,0 4,220 150,208z"/>
  <polyline class="fil11 str6" points="643,561 621,559 625,628 647,625 "/>
  <line class="fil11 str6" x1="645" y1="593" x2="623" y2= "593" />
  <polyline class="fil11 str6" points="658,631 660,613 665,561 683,628 "/>
  <line class="fil11 str6" x1="677" y1="613" x2="660" y2= "613" />
  <path class="fil11 str6" d="M720 581c0,0 -23,-28 -25,-5 -2,23 44,45 20,55 -23,10 -17,-16 -17,-16"/>
  <polyline class="fil11 str6" points="729,569 742,603 757,573 "/>
  <line class="fil11 str6" x1="742" y1="636" x2="742" y2= "603" />
 </g>
</svg>
