<?xml version="1.0" encoding="UTF-8"?>
<!DOCTYPE svg PUBLIC "-//W3C//DTD SVG 1.1//EN" "http://www.w3.org/Graphics/SVG/1.1/DTD/svg11.dtd">
<!-- Creator: CorelDRAW X8 -->
<svg xmlns="http://www.w3.org/2000/svg" xml:space="preserve" width="1.92in" height="1.08in" version="1.1" style="shape-rendering:geometricPrecision; text-rendering:geometricPrecision; image-rendering:optimizeQuality; fill-rule:evenodd; clip-rule:evenodd"
viewBox="0 0 1920 1080"
 xmlns:xlink="http://www.w3.org/1999/xlink">
 <defs>
  <style type="text/css">
   <![CDATA[
    .fil5 {fill:#61F1D4}
    .fil2 {fill:#85D9FC}
    .fil6 {fill:#92F2E2}
    .fil4 {fill:#B3E3FA}
    .fil0 {fill:#F4F6FB}
    .fil1 {fill:#F8E5A0}
    .fil3 {fill:#F9E081}
    .fil7 {fill:#FBDA5B}
   ]]>
  </style>
 </defs>
 <g id="Layer_x0020_1">
  <metadata id="CorelCorpID_0Corel-Layer"/>
  <rect class="fil0" x="1" y="1" width="1914" height="1082"/>
  <circle class="fil1" cx="586" cy="271" r="12"/>
  <circle class="fil2" cx="759" cy="438" r="9"/>
  <circle class="fil3" cx="926" cy="345" r="9"/>
  <circle class="fil3" cx="1339" cy="446" r="9"/>
  <circle class="fil4" cx="1264" cy="340" r="12"/>
  <circle class="fil5" cx="1254" cy="555" r="12"/>
  <circle class="fil6" cx="1374" cy="667" r="10"/>
  <circle class="fil1" cx="1184" cy="687" r="9"/>
  <circle class="fil7" cx="867" cy="675" r="9"/>
  <circle class="fil6" cx="490" cy="726" r="12"/>
  <circle class="fil4" cx="568" cy="565" r="9"/>
  <polygon class="fil7" points="117,369 78,402 153,423 "/>
  <polygon class="fil7" points="975,560 1017,544 1008,589 "/>
  <polygon class="fil5" points="1561,384 1603,368 1594,413 "/>
  <polygon class="fil7" points="1494,741 1491,680 1545,710 "/>
  <polygon class="fil2" points="277,596 264,632 321,617 "/>
  <circle class="fil4" cx="70" cy="493" r="9"/>
  <circle class="fil1" cx="65" cy="783" r="12"/>
  <circle class="fil5" cx="1689" cy="549" r="12"/>
  <circle class="fil1" cx="1809" cy="322" r="12"/>
  <circle class="fil7" cx="300" cy="919" r="9"/>
  <polygon class="fil7" points="644,832 686,816 677,861 "/>
  <circle class="fil5" cx="810" cy="999" r="12"/>
  <circle class="fil5" cx="282" cy="221" r="12"/>
  <polygon class="fil7" points="414,415 411,354 465,384 "/>
  <polygon class="fil7" points="1276,159 1273,98 1327,129 "/>
  <polygon class="fil5" points="821,112 863,96 854,141 "/>
  <circle class="fil5" cx="293" cy="102" r="18"/>
  <circle class="fil3" cx="564" cy="91" r="9"/>
  <circle class="fil3" cx="1059" cy="114" r="9"/>
  <circle class="fil3" cx="1109" cy="236" r="9"/>
  <circle class="fil3" cx="1617" cy="113" r="9"/>
  <polygon class="fil5" points="1174,896 1216,879 1207,924 "/>
 </g>
</svg>
