<svg width="16" height="16" viewBox="0 0 16 16" fill="none" xmlns="http://www.w3.org/2000/svg">
<path opacity="0.6" d="M15.1439 6.39393C14.58 5.83009 13.973 5.5675 13.2334 5.5675C12.9287 5.5675 12.6399 5.60976 12.3606 5.65065C12.1098 5.68734 11.8729 5.72202 11.649 5.72207C11.2419 5.72207 10.9501 5.604 10.6732 5.32718C10.1756 4.82963 10.2525 4.3047 10.3498 3.64012C10.4659 2.84728 10.6103 1.86062 9.60637 0.856711C9.03798 0.288384 8.26356 0.000181661 7.30471 0.000181828C5.46854 0.000182149 3.44652 1.06147 2.39812 2.10981C0.856565 3.65131 0.00494567 5.69808 2.28255e-05 7.87322C-0.00490002 10.0488 0.837858 12.0924 2.37297 13.6274C3.90296 15.1574 5.93994 16 8.10872 16.0002C8.10897 16.0002 8.10907 16.0002 8.10936 16.0002C10.2911 16.0002 12.3443 15.1486 13.8906 13.6023C14.7392 12.7538 15.473 11.4237 15.8057 10.1311C16.2118 8.554 15.9767 7.22677 15.1439 6.39393ZM3.81946 11.022C3.22892 11.2298 2.58516 10.9202 2.38025 10.3314C2.17594 9.74327 2.48768 9.09775 3.07679 8.89018C3.6662 8.68242 4.31031 8.9918 4.51516 9.58052C4.72026 10.169 4.40823 10.8147 3.81946 11.022ZM4.63701 6.51585C4.30351 7.04502 3.6055 7.20599 3.07832 6.87542C2.54981 6.54397 2.39251 5.84679 2.72581 5.31787C3.05931 4.78865 3.75728 4.62768 4.28451 4.95834C4.81243 5.28915 4.96967 5.98638 4.63701 6.51585ZM7.52591 13.0132C7.31805 13.6037 6.67262 13.9154 6.08414 13.7103C5.49538 13.5054 5.18684 12.8616 5.39356 12.2722C5.60142 11.6829 6.24691 11.3711 6.83592 11.5757C7.42405 11.78 7.73318 12.4244 7.52591 13.0132ZM7.10832 4.6893C6.48814 4.76048 5.9296 4.31554 5.86127 3.69574C5.79244 3.07539 6.23986 2.51485 6.86034 2.44348C7.48086 2.37205 8.0393 2.81694 8.10788 3.43763C8.17617 4.05743 7.72875 4.61793 7.10832 4.6893ZM11.0478 12.9095C10.5192 13.2424 9.82205 13.0849 9.49047 12.5577C9.16013 12.0303 9.32131 11.3321 9.85056 10.9986C10.379 10.6648 11.0768 10.8225 11.4071 11.35C11.7385 11.8785 11.5776 12.5764 11.0478 12.9095ZM13.5347 8.53213C13.4627 9.15198 12.903 9.59968 12.2826 9.5319C11.6632 9.46304 11.2186 8.90427 11.2892 8.28358C11.3598 7.66403 11.9208 7.21604 12.5408 7.28435C13.1612 7.35326 13.6061 7.91174 13.5347 8.53213Z" fill="#696969"/>
</svg>
