<svg width="16" height="16" viewBox="0 0 16 16" fill="none" xmlns="http://www.w3.org/2000/svg">
<path d="M8 0.000181707C3.56364 0.000182482 6.23086e-07 3.56382 1.39876e-06 8.00018C2.17444e-06 12.4365 3.56364 16.0002 8 16.0002C12.4364 16.0002 16 12.4365 16 8.00018C16 3.56382 12.4364 0.000180931 8 0.000181707ZM12.1818 7.92745L8.21818 11.8911C7.67273 12.4365 6.94546 12.7275 6.14546 12.7275C5.34546 12.7275 4.65455 12.4365 4.07273 11.8911C3.52727 11.3456 3.23637 10.6184 3.23637 9.81836C3.23637 9.01836 3.52727 8.32745 4.07273 7.74564L8.47273 3.34564C8.54546 3.27291 8.61818 3.23655 8.72727 3.23655C8.83636 3.23655 8.90909 3.27291 8.98182 3.34564L9.49091 3.85473C9.63636 4.00018 9.63636 4.21836 9.49091 4.36382L5.09091 8.76382C4.8 9.05473 4.65455 9.41836 4.65455 9.782C4.65455 10.1456 4.8 10.5456 5.09091 10.8002C5.63637 11.3456 6.58182 11.3456 7.16364 10.8002L11.1273 6.83654C11.2 6.76382 11.2364 6.69109 11.2364 6.582C11.2364 6.36382 11.0909 6.21836 10.8727 6.21836C10.7273 6.21836 10.6545 6.29109 10.6182 6.32745L7.27273 9.67291C7.2 9.74564 7.09091 9.782 7.01818 9.782C6.94546 9.782 6.83637 9.74564 6.76364 9.67291L6.25455 9.16382C6.10909 9.01836 6.10909 8.80018 6.25455 8.65473L9.6 5.30927C9.92727 4.982 10.4 4.76382 10.8727 4.76382C11.8909 4.76382 12.6909 5.56382 12.6909 6.582C12.7273 7.12745 12.5455 7.56382 12.1818 7.92745Z" fill="#A5A5A5"/>
</svg>
