<svg width="26" height="22" viewBox="0 0 26 22" fill="none" xmlns="http://www.w3.org/2000/svg">
<path opacity="0.8" d="M24.9688 5.03124C24.2814 4.34376 23.4585 4.00007 22.5001 4.00007L12 4.00008L12 3.50009C12 2.54176 11.6562 1.71883 10.9688 1.03151C10.2813 0.344026 9.45834 0.000120417 8.5 0.000120584L3.49999 0.000121458C2.54144 0.000121626 1.71855 0.343973 1.03118 1.03151C0.343689 1.71883 4.44394e-07 2.54176 6.11954e-07 3.50009L3.23465e-06 18.5002C3.40218e-06 19.4583 0.343692 20.2812 1.03118 20.9686C1.71867 21.6562 2.54166 22.0001 3.49999 22.0001L22.5 22.0001C23.4585 22.0001 24.2815 21.6563 24.9688 20.9686C25.6565 20.2812 26 19.4583 26 18.5001L26 7.50026C26.0001 6.54188 25.6565 5.719 24.9688 5.03124Z" fill="#3B8BB8"/>
</svg>
