<svg xmlns="http://www.w3.org/2000/svg" x="0px" y="0px"
width="24" height="24"
viewBox="0 0 226 226"
style=" fill:#000000;"><g fill="none" fill-rule="nonzero" stroke="none" stroke-width="1" stroke-linecap="butt" stroke-linejoin="miter" stroke-miterlimit="10" stroke-dasharray="" stroke-dashoffset="0" font-family="none" font-weight="none" font-size="none" text-anchor="none" style="mix-blend-mode: normal"><path d="M0,226v-226h226v226z" fill="none"></path><g fill="#692dff"><path d="M113,18.83333c-36.40483,0 -65.91667,29.51183 -65.91667,65.91667c0,47.08333 65.91667,122.52702 65.91667,122.52702c0,0 65.91667,-75.44369 65.91667,-122.52702c0,-36.40483 -29.51183,-65.91667 -65.91667,-65.91667zM113,37.66667c25.96175,0 47.08333,21.12158 47.08333,47.08333h-18.83333v18.83333h15.04459c-7.74566,22.96094 -26.33952,51.80461 -43.31298,73.91715c-16.97546,-22.10286 -35.55962,-50.93337 -43.2946,-73.91715h15.06299v-18.83333h-18.83333c0,-25.96175 21.12158,-47.08333 47.08333,-47.08333zM84.75,84.75h18.83333v-18.83333h-18.83333zM103.58333,84.75v18.83333h18.83333v-18.83333zM122.41667,84.75h18.83333v-18.83333h-18.83333z"></path></g></g></svg>