<?xml version="1.0" encoding="UTF-8"?>
<svg xmlns="http://www.w3.org/2000/svg" xmlns:xlink="http://www.w3.org/1999/xlink" width="50pt" height="50pt" viewBox="0 0 50 50" version="1.1">
<g id="surface3715642">
<path style="fill-rule:nonzero;fill:rgb(0%,0%,0%);fill-opacity:1;stroke-width:1;stroke-linecap:butt;stroke-linejoin:round;stroke:rgb(0%,0%,0%);stroke-opacity:1;stroke-miterlimit:10;" d="M 95.300805 6.875566 C 96.977113 6.875566 98.410086 8.078722 98.693976 9.727993 L 102.303446 30.316839 C 106.331992 31.506476 110.157759 33.115191 113.767228 35.088908 L 130.706049 22.908639 C 132.071429 21.921781 133.950516 22.070485 135.153672 23.273642 L 148.537098 36.643549 C 149.713217 37.819668 149.87544 39.685236 148.915619 41.050616 L 136.843498 58.24629 C 138.803697 61.828722 140.385375 65.627452 141.561494 69.615443 L 162.231451 72.995096 C 163.89424 73.278986 165.110915 74.711959 165.110915 76.388267 L 165.110915 95.314323 C 165.110915 96.977113 163.921278 98.410086 162.272007 98.707495 L 141.575013 102.330483 C 140.398893 106.331992 138.817216 110.130722 136.870536 113.726673 L 149.104879 130.706049 C 150.091738 132.071429 149.943033 133.950516 148.739877 135.153672 L 135.36997 148.537098 C 134.193851 149.713217 132.328282 149.87544 130.962902 148.915619 L 113.807784 136.884054 C 110.198315 138.87129 106.372548 140.480005 102.344002 141.683161 L 98.693976 162.272007 C 98.410086 163.921278 96.977113 165.124434 95.300805 165.124434 L 76.388267 165.124434 C 74.698441 165.124434 73.265468 163.907759 72.995096 162.24497 L 69.588405 141.737236 C 65.546341 140.547598 61.707055 138.965921 58.070548 136.978685 L 41.037098 148.915619 C 39.658199 149.861922 37.806149 149.699698 36.63003 148.523579 L 23.260123 135.140153 C 22.070485 133.950516 21.908262 132.084947 22.895121 130.719567 L 34.926685 113.875377 C 32.925931 110.225352 31.330734 106.372548 30.127578 102.316964 L 9.727993 98.693976 C 8.078722 98.410086 6.889085 96.977113 6.889085 95.300805 L 6.889085 76.388267 C 6.889085 74.711959 8.10576 73.265468 9.75503 72.995096 L 30.154615 69.601924 C 31.357772 65.532822 32.966486 61.680018 34.967241 58.043511 L 23.070863 41.037098 C 22.111041 39.658199 22.273265 37.806149 23.449384 36.63003 L 36.832809 23.260123 C 38.022447 22.070485 39.901534 21.908262 41.266914 22.895121 L 58.165179 34.967241 C 61.788166 32.993524 65.627452 31.411846 69.64248 30.249245 L 72.995096 9.768549 C 73.265468 8.10576 74.698441 6.875566 76.388267 6.875566 Z M 76.131413 33.209821 C 75.915116 34.561683 74.90122 35.65669 73.562877 35.994655 C 68.520435 37.224849 63.761884 39.198566 59.449447 41.79414 C 58.273327 42.497108 56.799799 42.443033 55.677754 41.645435 L 39.644681 30.181652 L 30.357394 39.45542 L 41.658954 55.610161 C 42.443033 56.718687 42.497108 58.192216 41.780621 59.354816 C 39.158011 63.707809 37.170775 68.452842 35.900025 73.522321 C 35.56206 74.847145 34.480571 75.861041 33.12871 76.077339 L 13.770058 79.294769 L 13.770058 92.421341 L 33.142228 95.868587 C 34.467052 96.098403 35.548541 97.09878 35.872988 98.410086 C 37.130219 103.466046 39.117455 108.224598 41.753584 112.577591 C 42.47007 113.75371 42.415996 115.240757 41.618398 116.349283 L 30.181652 132.341801 L 39.45542 141.629087 L 55.637198 130.286972 C 56.745724 129.516411 58.205734 129.462337 59.368335 130.151786 C 63.721328 132.760878 68.466361 134.748114 73.495284 135.991826 C 74.833627 136.316273 75.834004 137.41128 76.06382 138.763141 L 79.294769 158.243461 L 92.421341 158.243461 L 95.895624 138.668511 C 96.138959 137.343687 97.125817 136.275717 98.437123 135.937752 C 103.452528 134.667002 108.184042 132.666247 112.48296 130.057155 C 113.645561 129.354188 115.11909 129.394743 116.241134 130.178823 L 132.54458 141.629087 L 141.818348 132.355319 L 130.192342 116.227616 C 129.381225 115.105571 129.32715 113.618524 130.030118 112.442404 C 132.625692 108.129967 134.58589 103.439009 135.816084 98.437123 C 136.140531 97.125817 137.22202 96.111922 138.560362 95.882105 L 158.229942 92.421341 L 158.229942 79.321806 L 138.600918 76.104376 C 137.249057 75.888078 136.154049 74.887701 135.816084 73.549359 C 134.572372 68.547472 132.612173 63.856514 130.0166 59.544077 C 129.32715 58.381476 129.367706 56.907948 130.151786 55.799422 L 141.615568 39.468939 L 132.355319 30.195171 L 116.254653 41.767103 C 115.132608 42.578219 113.645561 42.632294 112.469442 41.915807 C 108.157005 39.306715 103.42549 37.319479 98.396567 36.062248 C 97.071743 35.737802 96.071366 34.656313 95.841549 33.31797 L 92.421341 13.756539 L 79.308287 13.756539 Z M 113.523893 86 C 113.523893 101.154364 101.154364 113.523893 86 113.523893 C 70.845636 113.523893 58.476107 101.154364 58.476107 86 C 58.476107 70.845636 70.845636 58.476107 86 58.476107 C 101.154364 58.476107 113.523893 70.845636 113.523893 86 Z M 65.35708 86 C 65.35708 97.436745 74.563255 106.64292 86 106.64292 C 97.436745 106.64292 106.64292 97.436745 106.64292 86 C 106.64292 74.563255 97.436745 65.35708 86 65.35708 C 74.563255 65.35708 65.35708 74.563255 65.35708 86 Z M 65.35708 86 " transform="matrix(0.288953,0,0,0.288953,0.15,0.15)"/>
<path style=" stroke:none;fill-rule:nonzero;fill:rgb(0%,0%,0%);fill-opacity:1;" d="M 22.222656 2.136719 C 21.734375 2.136719 21.320312 2.492188 21.242188 2.972656 L 20.273438 8.890625 C 19.113281 9.226562 18.003906 9.683594 16.957031 10.253906 L 12.074219 6.765625 C 11.679688 6.480469 11.136719 6.527344 10.792969 6.871094 L 6.925781 10.734375 C 6.585938 11.074219 6.539062 11.609375 6.816406 12.007812 L 10.253906 16.921875 C 9.675781 17.972656 9.210938 19.085938 8.863281 20.261719 L 2.96875 21.242188 C 2.492188 21.320312 2.140625 21.738281 2.140625 22.222656 L 2.140625 27.6875 C 2.140625 28.171875 2.484375 28.585938 2.960938 28.667969 L 8.855469 29.714844 C 9.203125 30.886719 9.664062 32 10.242188 33.054688 L 6.765625 37.921875 C 6.480469 38.316406 6.527344 38.855469 6.871094 39.199219 L 10.734375 43.066406 C 11.074219 43.40625 11.609375 43.453125 12.007812 43.179688 L 16.929688 39.730469 C 17.980469 40.304688 19.089844 40.761719 20.257812 41.105469 L 21.242188 47.03125 C 21.320312 47.511719 21.734375 47.863281 22.222656 47.863281 L 27.6875 47.863281 C 28.171875 47.863281 28.585938 47.515625 28.667969 47.039062 L 29.722656 41.089844 C 30.886719 40.742188 31.992188 40.277344 33.035156 39.703125 L 37.992188 43.179688 C 38.386719 43.457031 38.925781 43.410156 39.265625 43.070312 L 43.128906 39.203125 C 43.476562 38.855469 43.519531 38.3125 43.234375 37.917969 L 39.699219 33.011719 C 40.261719 31.972656 40.71875 30.875 41.058594 29.71875 L 47.039062 28.671875 C 47.515625 28.585938 47.859375 28.171875 47.859375 27.691406 L 47.859375 22.222656 C 47.859375 21.738281 47.507812 21.324219 47.027344 21.242188 L 41.054688 20.265625 C 40.714844 19.113281 40.257812 18.015625 39.691406 16.980469 L 43.179688 12.011719 C 43.457031 11.617188 43.410156 11.078125 43.070312 10.738281 L 39.203125 6.875 C 38.855469 6.527344 38.3125 6.484375 37.917969 6.769531 L 33.023438 10.289062 C 31.980469 9.71875 30.875 9.253906 29.710938 8.910156 L 28.667969 2.960938 C 28.585938 2.484375 28.171875 2.136719 27.6875 2.136719 Z M 23.066406 4.125 L 26.855469 4.125 L 27.84375 9.777344 C 27.910156 10.164062 28.199219 10.476562 28.582031 10.570312 C 30.035156 10.933594 31.402344 11.507812 32.648438 12.261719 C 32.988281 12.46875 33.417969 12.453125 33.742188 12.21875 L 38.394531 8.875 L 41.070312 11.554688 L 37.757812 16.273438 C 37.53125 16.59375 37.519531 17.019531 37.71875 17.355469 C 38.46875 18.601562 39.035156 19.957031 39.394531 21.402344 C 39.492188 21.789062 39.808594 22.078125 40.199219 22.140625 L 45.871094 23.070312 L 45.871094 26.855469 L 40.1875 27.855469 C 39.800781 27.921875 39.488281 28.214844 39.394531 28.59375 C 39.039062 30.039062 38.472656 31.394531 37.722656 32.640625 C 37.519531 32.980469 37.535156 33.410156 37.769531 33.734375 L 41.128906 38.394531 L 38.449219 41.074219 L 33.738281 37.765625 C 33.414062 37.539062 32.988281 37.527344 32.652344 37.730469 C 31.410156 38.484375 30.042969 39.0625 28.59375 39.429688 C 28.214844 39.527344 27.929688 39.835938 27.859375 40.21875 L 26.855469 45.875 L 23.0625 45.875 L 22.128906 40.246094 C 22.0625 39.855469 21.773438 39.539062 21.386719 39.445312 C 19.933594 39.085938 18.5625 38.511719 17.304688 37.757812 C 16.96875 37.558594 16.546875 37.574219 16.226562 37.796875 L 11.550781 41.074219 L 8.871094 38.390625 L 12.175781 33.769531 C 12.40625 33.449219 12.421875 33.019531 12.214844 32.679688 C 11.453125 31.421875 10.878906 30.046875 10.515625 28.585938 C 10.421875 28.207031 10.109375 27.917969 9.726562 27.851562 L 4.128906 26.855469 L 4.128906 23.0625 L 9.722656 22.132812 C 10.113281 22.070312 10.425781 21.777344 10.523438 21.394531 C 10.890625 19.929688 11.464844 18.558594 12.222656 17.300781 C 12.429688 16.964844 12.414062 16.539062 12.1875 16.21875 L 8.921875 11.550781 L 11.605469 8.871094 L 16.238281 12.183594 C 16.5625 12.414062 16.988281 12.429688 17.328125 12.226562 C 18.574219 11.476562 19.949219 10.90625 21.40625 10.550781 C 21.792969 10.453125 22.085938 10.136719 22.148438 9.746094 Z M 25 17.046875 C 20.621094 17.046875 17.046875 20.621094 17.046875 25 C 17.046875 29.378906 20.621094 32.953125 25 32.953125 C 29.378906 32.953125 32.953125 29.378906 32.953125 25 C 32.953125 20.621094 29.378906 17.046875 25 17.046875 Z M 25 19.035156 C 28.304688 19.035156 30.964844 21.695312 30.964844 25 C 30.964844 28.304688 28.304688 30.964844 25 30.964844 C 21.695312 30.964844 19.035156 28.304688 19.035156 25 C 19.035156 21.695312 21.695312 19.035156 25 19.035156 Z M 25 19.035156 "/>
</g>
</svg>
