<svg width="23" height="23" viewBox="0 0 23 23" fill="none" xmlns="http://www.w3.org/2000/svg">
<path d="M9.94708 0.0445352C14.6389 0.5044 18.0707 4.68056 18.0707 9.34422L18.0707 13.2503L22.1776 13.2503C22.4931 13.2503 22.7805 13.4291 22.9185 13.7102C23.0549 13.9929 23.0188 14.3261 22.82 14.5698L16.2488 22.6946C16.0911 22.888 15.8562 23.0001 15.6065 23.0001C15.3568 23.0001 15.1219 22.888 14.9642 22.6963L8.39301 14.5714C8.27473 14.4236 8.21394 14.2432 8.21394 14.0628C8.21394 13.9426 8.24023 13.8223 8.29444 13.7102C8.43243 13.4291 8.71992 13.2503 9.03534 13.2503L13.1423 13.2503L13.1423 9.17197C13.1423 7.04651 11.5981 5.10955 9.46082 4.89668C7.0032 4.65131 4.92836 6.5574 4.92836 8.93798L4.92836 12.4378C4.92836 12.8863 4.56038 13.2503 4.10697 13.2503L0.821392 13.2503C0.367983 13.2503 -1.88896e-06 12.8863 -1.97272e-06 12.4378L-2.62639e-06 8.93798C-3.60153e-06 3.71696 4.56202 -0.480328 9.94708 0.0445352Z" fill="#A5A5A5"/>
</svg>
