<svg width="30" height="20" viewBox="0 0 30 20" fill="none" xmlns="http://www.w3.org/2000/svg">
<path d="M18.75 10.0002C18.75 12.0712 17.0713 13.7501 15 13.7501C12.9287 13.7501 11.25 12.0712 11.25 10.0002C11.25 7.92914 12.9287 6.25018 15 6.25018C17.0713 6.25018 18.75 7.92913 18.75 10.0002Z" fill="#A5A5A5"/>
<path fill-rule="evenodd" clip-rule="evenodd" d="M1.74846e-06 10.0002C3.00049 4.02838 8.58643 0.000181604 15 0.000180483C21.4136 0.000179361 26.9995 4.02838 30 10.0002C26.9995 15.9731 21.4136 20.0002 15 20.0002C8.58643 20.0002 3.00049 15.9731 1.74846e-06 10.0002ZM8.75 10.0002C8.75 13.4525 11.5479 16.2502 15 16.2502C18.4522 16.2502 21.25 13.4524 21.25 10.0002C21.25 6.54791 18.4521 3.75018 15 3.75018C11.5479 3.75018 8.75 6.54791 8.75 10.0002Z" fill="#A5A5A5"/>
</svg>
